<svg width="229" height="50" viewBox="0 0 229 50" fill="none" xmlns="http://www.w3.org/2000/svg">
<path d="M25 3C12.85 3 3 12.85 3 25C3 36.03 11.125 45.137 21.712 46.728V30.831H16.269V25.048H21.712V21.2C21.712 14.829 24.816 12.032 30.111 12.032C32.647 12.032 33.988 12.22 34.623 12.306V17.354H31.011C28.763 17.354 27.978 19.485 27.978 21.887V25.048H34.566L33.672 30.831H27.978V46.775C38.716 45.318 47 36.137 47 25C47 12.85 37.15 3 25 3Z" fill="#DDB42A"/>
<path d="M146 12.0898C144.123 12.9548 142.106 13.5368 139.99 13.7993C142.152 12.4561 143.809 10.3295 144.59 7.7937C142.569 9.03715 140.329 9.94074 137.944 10.4292C136.036 8.31876 133.317 7 130.308 7C124.53 7 119.846 11.8619 119.846 17.8553C119.846 18.706 119.94 19.5363 120.117 20.328C111.421 19.8762 103.713 15.5536 98.5502 8.98424C97.6519 10.5879 97.136 12.4521 97.136 14.4445C97.136 18.2094 98.9818 21.5328 101.789 23.4783C100.074 23.4214 98.46 22.9329 97.0497 22.1209C97.0497 22.1677 97.0497 22.2105 97.0497 22.2573C97.0497 27.5181 100.655 31.9058 105.443 32.9009C104.566 33.1492 103.64 33.2815 102.685 33.2815C102.012 33.2815 101.355 33.2123 100.718 33.0882C102.049 37.4006 105.914 40.5408 110.492 40.6283C106.912 43.5405 102.401 45.2765 97.4969 45.2765C96.6535 45.2765 95.8199 45.2256 95 45.1239C99.631 48.203 105.129 50 111.039 50C130.285 50 140.806 33.4586 140.806 19.113C140.806 18.6429 140.796 18.1748 140.777 17.7088C142.822 16.1763 144.598 14.2654 146 12.0898Z" fill="#DDB42A"/>
<path d="M198 6C190.83 6 185 11.83 185 19V37C185 44.17 190.83 50 198 50H216C223.17 50 229 44.17 229 37V19C229 11.83 223.17 6 216 6H198ZM219 14C220.1 14 221 14.9 221 16C221 17.1 220.1 18 219 18C217.9 18 217 17.1 217 16C217 14.9 217.9 14 219 14ZM207 17C213.07 17 218 21.93 218 28C218 34.07 213.07 39 207 39C200.93 39 196 34.07 196 28C196 21.93 200.93 17 207 17ZM207 19C202.04 19 198 23.04 198 28C198 32.96 202.04 37 207 37C211.96 37 216 32.96 216 28C216 23.04 211.96 19 207 19Z" fill="#DDB42A"/>
</svg>
